<?xml version="1.0" standalone="no"?>
<!DOCTYPE svg PUBLIC "-//W3C//DTD SVG 20010904//EN"
 "http://www.w3.org/TR/2001/REC-SVG-20010904/DTD/svg10.dtd">
<svg version="1.0" xmlns="http://www.w3.org/2000/svg"
 width="15pt" height="15pt" viewBox="0 0 512.000000 512.000000"
 preserveAspectRatio="xMidYMid meet">

<g transform="translate(0.000000,512.000000) scale(0.100000,-0.100000)"
fill="#646669" stroke="none">
<path d="M515 3986 c-88 -22 -145 -54 -209 -118 -35 -35 -74 -87 -89 -118 -59
-122 -57 -83 -57 -1192 0 -1070 0 -1072 46 -1176 30 -68 131 -170 204 -205
126 -61 -10 -57 2152 -57 1432 0 1992 3 2030 11 92 20 155 55 222 121 35 35
74 87 89 118 59 122 57 83 57 1192 0 709 -3 1033 -11 1070 -37 174 -169 306
-354 353 -52 13 -300 15 -2045 14 -1539 -1 -1996 -3 -2035 -13z m4049 -326
c16 -8 39 -28 50 -43 21 -28 21 -29 21 -1050 0 -1118 3 -1056 -58 -1101 l-28
-21 -1982 0 c-2172 0 -2015 -4 -2061 58 -21 28 -21 29 -21 1057 0 1025 0 1029
21 1057 11 15 36 36 55 46 32 16 144 17 2004 15 1728 -3 1974 -5 1999 -18z"/>
<path d="M800 3200 l0 -160 160 0 160 0 0 160 0 160 -160 0 -160 0 0 -160z"/>
<path d="M1440 3200 l0 -160 160 0 160 0 0 160 0 160 -160 0 -160 0 0 -160z"/>
<path d="M2080 3200 l0 -160 160 0 160 0 0 160 0 160 -160 0 -160 0 0 -160z"/>
<path d="M2720 3200 l0 -160 160 0 160 0 0 160 0 160 -160 0 -160 0 0 -160z"/>
<path d="M3360 3200 l0 -160 160 0 160 0 0 160 0 160 -160 0 -160 0 0 -160z"/>
<path d="M4000 3200 l0 -160 160 0 160 0 0 160 0 160 -160 0 -160 0 0 -160z"/>
<path d="M800 2560 l0 -160 160 0 160 0 0 160 0 160 -160 0 -160 0 0 -160z"/>
<path d="M1440 2560 l0 -160 160 0 160 0 0 160 0 160 -160 0 -160 0 0 -160z"/>
<path d="M2080 2560 l0 -160 160 0 160 0 0 160 0 160 -160 0 -160 0 0 -160z"/>
<path d="M2720 2560 l0 -160 160 0 160 0 0 160 0 160 -160 0 -160 0 0 -160z"/>
<path d="M3360 2560 l0 -160 160 0 160 0 0 160 0 160 -160 0 -160 0 0 -160z"/>
<path d="M4000 2560 l0 -160 160 0 160 0 0 160 0 160 -160 0 -160 0 0 -160z"/>
<path d="M800 1920 l0 -160 160 0 160 0 0 160 0 160 -160 0 -160 0 0 -160z"/>
<path d="M1440 1920 l0 -160 1120 0 1120 0 0 160 0 160 -1120 0 -1120 0 0
-160z"/>
<path d="M4000 1920 l0 -160 160 0 160 0 0 160 0 160 -160 0 -160 0 0 -160z"/>
</g>
</svg>
